<svg width="50" height="50" viewBox="0 0 50 50" fill="none" xmlns="http://www.w3.org/2000/svg">
<circle cx="25" cy="25" r="25" fill="white"/>
<circle cx="24.5" cy="24.5" r="11.5" fill="#2FA85F"/>
<path d="M25.9434 27.6338C25.9434 27.1533 25.8086 26.7725 25.5391 26.4912C25.2754 26.2041 24.8242 25.9404 24.1855 25.7002C23.5469 25.46 22.9961 25.2227 22.5332 24.9883C22.0703 24.748 21.6719 24.4756 21.3379 24.1709C21.0098 23.8604 20.752 23.4971 20.5645 23.0811C20.3828 22.665 20.292 22.1699 20.292 21.5957C20.292 20.6055 20.6084 19.7939 21.2412 19.1611C21.874 18.5283 22.7148 18.1592 23.7637 18.0537V16.1729H25.1699V18.0801C26.207 18.2266 27.0186 18.6602 27.6045 19.3809C28.1904 20.0957 28.4834 21.0244 28.4834 22.167H25.9434C25.9434 21.4639 25.7969 20.9395 25.5039 20.5938C25.2168 20.2422 24.8301 20.0664 24.3438 20.0664C23.8633 20.0664 23.4912 20.2041 23.2275 20.4795C22.9639 20.749 22.832 21.124 22.832 21.6045C22.832 22.0498 22.9609 22.4072 23.2188 22.6768C23.4766 22.9463 23.9541 23.2217 24.6514 23.5029C25.3545 23.7842 25.9316 24.0508 26.3828 24.3027C26.834 24.5488 27.2148 24.8301 27.5254 25.1465C27.8359 25.457 28.0732 25.8145 28.2373 26.2188C28.4014 26.6172 28.4834 27.083 28.4834 27.6162C28.4834 28.6123 28.1729 29.4209 27.5518 30.042C26.9307 30.6631 26.0752 31.0293 24.9854 31.1406V32.8896H23.5879V31.1494C22.3867 31.0205 21.4551 30.5957 20.793 29.875C20.1367 29.1484 19.8086 28.1846 19.8086 26.9834H22.3486C22.3486 27.6807 22.5127 28.2168 22.8408 28.5918C23.1748 28.9609 23.6523 29.1455 24.2734 29.1455C24.7891 29.1455 25.1963 29.0107 25.4951 28.7412C25.7939 28.4658 25.9434 28.0967 25.9434 27.6338Z" fill="white"/>
</svg>
